<!DOCTYPE svg PUBLIC "-//W3C//DTD SVG 1.1//EN" "http://www.w3.org/Graphics/SVG/1.1/DTD/svg11.dtd">
<!-- Uploaded to: SVG Repo, www.svgrepo.com, Transformed by: SVG Repo Mixer Tools -->
<svg fill="#579CEB" height="800px" width="800px" version="1.1" id="Capa_1" xmlns="http://www.w3.org/2000/svg" xmlns:xlink="http://www.w3.org/1999/xlink" viewBox="0 0 45.658 45.658" xml:space="preserve">
<g id="SVGRepo_bgCarrier" stroke-width="0"/>
<g id="SVGRepo_tracerCarrier" stroke-linecap="round" stroke-linejoin="round"/>
<g id="SVGRepo_iconCarrier"> <g> <path d="M25.261,45.658c-1.071,0-2.1-0.044-2.884-0.145c-6.059-0.779-9.004-4.802-9.004-12.298V21H9.341c-0.553,0-1-0.448-1-1v-7 c0-0.54,0.428-0.982,0.967-1c0.346-0.014,8.533-0.461,8.533-11c0-0.552,0.447-1,1-1h6.551c0.553,0,1,0.448,1,1v11h9.926 c0.553,0,1,0.448,1,1v7c0,0.552-0.447,1-1,1h-9.926v11.611c0,0.035-0.002,0.07-0.006,0.105c-0.001,0.009-0.132,1.517,0.769,2.42 c0.598,0.601,1.575,0.845,2.899,0.722c1.277-0.116,3.688-0.657,5.472-2.969c0.263-0.338,0.711-0.474,1.114-0.335 c0.405,0.138,0.678,0.519,0.678,0.946v8c0,0.239-0.085,0.47-0.241,0.651c-0.085,0.1-2.147,2.446-7.202,3.226 C28.769,45.546,26.962,45.658,25.261,45.658z M10.341,19h4.033c0.553,0,1,0.448,1,1v13.215c0,8.314,3.88,9.879,7.26,10.314 c1.84,0.236,5.3,0.122,6.936-0.129c3.359-0.518,5.138-1.798,5.748-2.325v-5.175c-1.875,1.431-3.879,1.841-5.082,1.951 c-1.963,0.177-3.476-0.266-4.515-1.319c-1.439-1.46-1.358-3.562-1.329-3.962V20c0-0.552,0.447-1,1-1h9.926v-5h-9.926 c-0.553,0-1-0.448-1-1V2h-4.573c-0.436,9.359-6.972,11.428-9.478,11.877V19z"/> </g> </g>
</svg>